<?xml version="1.0" encoding="utf-8"?>
<!-- Generator: Adobe Illustrator 21.0.0, SVG Export Plug-In . SVG Version: 6.00 Build 0)  -->
<svg version="1.1" id="Layer_1" xmlns="http://www.w3.org/2000/svg" xmlns:xlink="http://www.w3.org/1999/xlink" x="0px" y="0px"
	 viewBox="0 0 595.3 841.9" style="enable-background:new 0 0 595.3 841.9;" xml:space="preserve">
<style type="text/css">
	.st0{fill:none;}
</style>
<g>
	<path d="M86,247.9c-2.1,2.4-4.1,4.6-6.2,6.5c-2.8,2.4-6.2,3.7-10.1,3.7c-3,0-7.2-1.5-12.7-4.5c-4.1-2.3-7.5-3.4-10.1-3.4
		c-3,0-5.3,0.9-7,2.8c-1.7,1.9-2.6,3.2-2.8,3.9l-5.6-3.1c1.5-2.4,3.5-4.7,5.9-6.8c2.6-2.3,5.6-3.4,9-3.4c3.6,0,7.6,1.2,12.1,3.7
		c4.7,2.6,8.7,3.9,12.1,3.9c2.3,0,4.5-1.1,6.8-3.4c1.1-0.9,2.3-2.3,3.4-3.9L86,247.9z M54.5,220.3l13.2,16.9h-6.5l-16.9-16.9H54.5z"
		/>
</g>
<rect x="550" y="237" class="st0" width="5" height="1"/>
</svg>
