<?xml version="1.0" encoding="utf-8"?>
<!-- Generator: Adobe Illustrator 21.0.0, SVG Export Plug-In . SVG Version: 6.00 Build 0)  -->
<svg version="1.1" id="Layer_1" xmlns="http://www.w3.org/2000/svg" xmlns:xlink="http://www.w3.org/1999/xlink" x="0px" y="0px"
	 viewBox="0 0 595.3 841.9" style="enable-background:new 0 0 595.3 841.9;" xml:space="preserve">
<g>
	<path d="M96.3,297.9c-2.4-2.4-3.8-5.6-3.9-9.6h6.2c0,2.4,0.7,4.4,2.3,5.9c1.5,1.5,3.6,2.3,6.2,2.3c2.3,0,4.1-0.7,5.6-2.3
		c2.1-2.1,3.1-5,3.1-8.7c0-3.9-1.1-7-3.4-9.3c-1.5-1.5-3.4-2.3-5.6-2.3s-3.9,0.6-5.1,1.7c-1.3,1.3-2.1,2.7-2.3,4.2h-6.2
		c0.4-3,1.6-5.5,3.7-7.6c2.3-2.3,5.6-3.4,10.1-3.4c4.1,0,7.6,1.4,10.4,4.2c3,3,4.5,7,4.5,12.1c0,4.9-1.7,9-5.1,12.4
		c-2.6,2.6-5.9,3.9-9.8,3.9C102.3,301.6,98.7,300.4,96.3,297.9z M119.7,261.9c-2.3,2.1-4.8,3.1-7.6,3.1c-2.4,0-4.3-0.4-5.6-1.1
		c-1.7-0.7-3.4-1.1-5.1-1.1c-1.3,0-2.8,0.8-4.5,2.3l-3.4-3.9c2.6-2.4,5.2-3.7,7.9-3.7c2.3,0,4.2,0.5,5.9,1.4
		c1.3,0.6,2.9,0.8,4.8,0.8c1.7,0,3.1-0.7,4.2-2.3L119.7,261.9z"/>
</g>
</svg>
