<?xml version="1.0" encoding="utf-8"?>
<!-- Generator: Adobe Illustrator 21.0.0, SVG Export Plug-In . SVG Version: 6.00 Build 0)  -->
<svg version="1.1" id="Layer_1" xmlns="http://www.w3.org/2000/svg" xmlns:xlink="http://www.w3.org/1999/xlink" x="0px" y="0px"
	 viewBox="0 0 595.3 841.9" style="enable-background:new 0 0 595.3 841.9;" xml:space="preserve">
<g>
	<path d="M188.2,266.9c-2.3,2.1-4.8,3.1-7.6,3.1c-2.4,0-4.3-0.4-5.6-1.1c-1.7-0.7-3.4-1.1-5.1-1.1c-1.3,0-2.8,0.8-4.5,2.3l-3.4-3.9
		c2.6-2.4,5.2-3.7,7.9-3.7c2.3,0,4.2,0.5,5.9,1.4c1.3,0.6,2.9,0.8,4.8,0.8c1.7,0,3.1-0.7,4.2-2.3L188.2,266.9z M165.7,303.5
		c-1.9-1.9-2.8-3.9-2.8-6.2c0-2.6,0.7-4.6,2-5.9c0.9-0.9,2.1-1.7,3.4-2.3c-0.8-0.2-1.8-0.9-3.1-2.3c-1.1-1.1-1.7-2.6-1.7-4.5
		c0-2.1,0.7-3.8,2.3-5.3c2.1-2.1,5.2-3.1,9.3-3.1c4.9,0,9.1,2.1,12.7,6.2l-3.9,3.9c-2.1-3.4-5.1-5.1-9-5.1c-1.9,0-3.3,0.5-4.2,1.4
		c-0.9,0.9-1.4,1.8-1.4,2.5c0,0.9,0.4,1.8,1.1,2.5c0.7,0.8,2.6,1.1,5.6,1.1v5.6c-3.2-0.2-5.3,0.2-6.2,1.1c-0.8,0.8-1.1,1.8-1.1,3.1
		c0,1.1,0.5,2.2,1.4,3.1c1.1,1.1,3,1.7,5.6,1.7c3.9,0,7-2.2,9.3-6.5l4.5,3.4c-3.2,5.6-7.8,8.4-13.8,8.4
		C171.1,306.6,167.8,305.5,165.7,303.5z"/>
</g>
</svg>
