<?xml version="1.0" encoding="utf-8"?>
<!-- Generator: Adobe Illustrator 21.0.0, SVG Export Plug-In . SVG Version: 6.00 Build 0)  -->
<svg version="1.1" id="Layer_1" xmlns="http://www.w3.org/2000/svg" xmlns:xlink="http://www.w3.org/1999/xlink" x="0px" y="0px"
	 viewBox="0 0 595.3 841.9" style="enable-background:new 0 0 595.3 841.9;" xml:space="preserve">
<g>
	<path d="M256.2,416.6l0.3-11.3l-8.7,6.2l-3.1-4.2l9-5.6l-9-5.3l3.1-4.2l8.7,6.2l-0.3-11.5h5.1l-0.3,11.5l9-6.2l2.8,4.2l-9,5.3
		l9,5.6l-2.8,4.2l-9-6.2l0.3,11.3H256.2z M274.5,440.5l-8.7,6.2l-3.1-4.2l9-5.6l-9-5.3l3.1-4.2l8.7,6.2l-0.3-11.5h5.1l-0.3,11.5
		l9-6.2l2.8,4.2l-9,5.3l9,5.6l-2.8,4.2l-9-6.2l0.3,11.3h-5.1L274.5,440.5z M289.9,401.7l-9-5.3l3.1-4.2l8.7,6.2l-0.3-11.5h5.1
		l-0.3,11.5l9-6.2l2.8,4.2l-9,5.3l9,5.6l-2.8,4.2l-9-6.2l0.3,11.3h-5.1l0.3-11.3l-8.7,6.2l-3.1-4.2L289.9,401.7z"/>
</g>
</svg>
