<?xml version="1.0" encoding="utf-8"?>
<!-- Generator: Adobe Illustrator 21.0.0, SVG Export Plug-In . SVG Version: 6.00 Build 0)  -->
<svg version="1.1" id="Layer_1" xmlns="http://www.w3.org/2000/svg" xmlns:xlink="http://www.w3.org/1999/xlink" x="0px" y="0px"
	 viewBox="0 0 598.1 394" style="enable-background:new 0 0 598.1 394;" xml:space="preserve">
<style type="text/css">
	.st0{fill:none;stroke:#000000;stroke-miterlimit:10;}
</style>
<path class="st0" d="M593.9,10c-12,1.9-30.9,4.1-54.2,3.5c-47.8-1.2-57.5-13-82.5-5.9c-27,7.7-50.1,31.2-61.3,54.2
	c-11,22.6-6.4,35.4-21.2,49.5c-14.8,14.2-34.6,15.8-42.5,16.5c-37.5,3.2-48.8-20-80.2-18.9c-29.3,1-50.5,22.2-63.7,35.4
	c-8.2,8.1-25.9,27.8-49.5,106.1c-21.1,70.1-15.7,83.4-33,103.8c-15,17.7-43.2,36.1-101.4,37.7"/>
</svg>
